<?xml version="1.0" standalone="no"?>
<!DOCTYPE svg PUBLIC "-//W3C//DTD SVG 20010904//EN"
 "http://www.w3.org/TR/2001/REC-SVG-20010904/DTD/svg10.dtd">
<svg version="1.0" xmlns="http://www.w3.org/2000/svg"
 width="2000.000000pt" height="2000.000000pt" viewBox="0 0 2000.000000 2000.000000"
 preserveAspectRatio="xMidYMid meet">
<metadata>
Created by potrace 1.14, written by Peter Selinger 2001-2017
</metadata>
<g transform="translate(0.000000,2000.000000) scale(0.100000,-0.100000)"
fill="#000000" stroke="none">
<path d="M1385 19986 c-41 -18 -77 -54 -108 -107 -28 -49 -73 -177 -82 -237
-3 -21 -7 -47 -9 -57 -11 -60 -16 -101 -32 -275 -4 -44 -4 -533 0 -620 3 -65
12 -203 21 -335 8 -100 18 -218 30 -332 3 -27 7 -75 10 -108 3 -33 7 -76 10
-95 10 -85 16 -138 20 -185 4 -43 11 -95 31 -242 2 -18 6 -48 8 -65 3 -18 10
-71 16 -118 15 -110 16 -114 25 -185 4 -33 9 -67 10 -75 3 -16 14 -89 20 -130
2 -14 9 -54 14 -90 5 -36 13 -85 16 -110 6 -42 47 -300 59 -365 3 -16 12 -70
20 -120 8 -49 22 -128 30 -175 8 -47 17 -98 20 -115 9 -52 44 -245 66 -360 11
-60 23 -123 26 -140 2 -16 25 -133 49 -260 24 -126 46 -241 49 -255 20 -112
217 -1048 236 -1120 5 -19 11 -48 14 -65 6 -32 21 -100 85 -380 23 -99 44
-191 47 -205 5 -23 22 -98 85 -360 11 -47 25 -101 30 -120 5 -19 41 -163 80
-320 39 -157 73 -294 76 -305 2 -11 8 -36 13 -55 4 -19 15 -60 23 -90 9 -30
34 -122 56 -205 42 -161 63 -238 111 -410 17 -60 32 -117 34 -125 3 -8 14 -49
26 -90 12 -41 34 -120 50 -175 29 -103 153 -511 190 -625 20 -63 20 -65 2 -90
-150 -206 -496 -761 -687 -1100 -54 -96 -106 -187 -116 -202 -11 -15 -19 -29
-19 -32 0 -3 -25 -52 -57 -108 -70 -128 -329 -642 -405 -803 -100 -214 -148
-317 -148 -321 0 -2 -16 -39 -36 -81 -49 -107 -58 -129 -89 -203 -14 -36 -35
-83 -45 -105 -53 -117 -280 -704 -360 -930 -44 -124 -201 -587 -205 -605 -2
-8 -27 -89 -55 -180 -55 -179 -75 -247 -115 -385 -14 -49 -28 -96 -31 -103 -2
-9 7 -7 29 6 17 11 49 30 70 41 21 12 48 27 60 35 12 7 47 27 77 43 30 17 73
40 95 53 66 38 462 234 580 288 245 111 276 124 283 118 2 -3 -8 -36 -23 -73
-108 -269 -177 -580 -189 -860 -3 -63 4 -69 40 -41 14 10 235 120 359 178 174
82 503 213 680 272 33 10 69 23 80 28 21 9 110 38 135 44 8 3 64 19 124 36 60
18 117 34 125 36 9 2 60 15 113 28 194 50 483 104 643 121 33 4 71 8 85 11
113 18 536 25 719 11 493 -37 992 -214 1330 -471 29 -23 63 -48 75 -56 53 -38
249 -227 326 -315 201 -230 389 -550 529 -903 123 -309 196 -588 327 -1247 13
-68 102 -403 113 -430 5 -11 19 -49 31 -85 99 -293 244 -544 419 -725 188
-195 419 -325 672 -377 59 -12 63 -15 102 -73 59 -88 198 -221 307 -294 261
-174 583 -283 940 -318 169 -17 483 -8 636 18 33 5 75 12 94 15 19 3 85 18
145 35 311 82 569 222 750 404 49 50 100 107 113 126 13 19 28 42 35 52 7 11
44 26 92 38 534 135 874 494 1096 1159 32 97 57 180 74 250 27 111 58 250 80
355 22 108 87 420 100 475 1 8 8 33 14 55 6 22 11 43 11 47 6 57 146 472 202
598 11 25 26 61 35 80 29 67 132 268 157 309 14 22 26 43 26 47 0 17 199 296
275 384 54 63 249 255 290 285 22 17 45 35 50 42 15 16 222 156 280 189 28 15
66 36 85 47 142 80 491 202 655 230 17 3 71 12 120 21 130 22 155 25 258 33
175 13 604 7 717 -11 14 -2 52 -7 85 -11 33 -3 103 -13 155 -21 120 -19 109
-17 316 -58 68 -14 261 -63 399 -102 160 -46 531 -170 550 -184 6 -4 34 -15
63 -24 29 -9 76 -27 105 -40 29 -13 77 -34 107 -46 30 -12 83 -36 118 -51 34
-16 65 -29 68 -29 3 0 99 -47 213 -104 l208 -104 -3 41 c-11 163 -16 225 -19
242 -2 11 -7 40 -10 65 -3 25 -9 60 -14 78 -5 18 -10 35 -10 37 1 22 -51 213
-83 310 -21 63 -23 67 -58 158 -12 32 -20 60 -17 63 15 15 695 -310 942 -451
167 -95 181 -103 218 -124 l33 -19 -28 102 c-76 272 -184 615 -296 946 -74
217 -228 638 -261 715 -5 11 -39 97 -76 190 -68 170 -221 533 -277 655 -17 36
-41 90 -55 120 -101 222 -362 749 -461 930 -22 41 -54 100 -70 130 -17 30 -44
80 -60 110 -39 71 -193 339 -233 405 -10 17 -26 44 -35 60 -9 17 -82 135 -163
263 -80 128 -153 244 -161 257 -49 80 -370 544 -409 593 -12 15 -21 35 -21 45
0 10 33 132 74 270 113 386 247 866 262 941 2 10 8 33 13 50 8 24 78 292 96
366 2 8 44 179 94 380 50 201 93 380 96 399 3 19 8 37 10 41 2 3 6 17 9 31 3
13 7 33 10 44 2 11 12 52 21 90 9 39 19 80 21 91 2 12 18 82 35 155 26 115 41
181 64 284 8 36 13 61 44 200 17 75 33 150 36 166 3 16 12 59 21 96 17 74 19
84 33 158 5 28 19 91 30 140 11 50 22 104 25 120 3 17 8 41 11 55 3 14 7 37
10 52 3 14 21 102 40 195 19 92 37 184 40 203 3 19 8 42 10 50 4 15 9 42 21
115 3 22 8 43 10 46 2 3 6 21 9 40 3 19 12 68 20 109 7 41 17 95 21 120 4 25
8 47 9 50 1 3 5 25 9 50 5 25 10 54 12 65 11 58 34 184 39 215 3 19 12 71 20
115 8 44 17 94 19 110 3 17 13 73 22 125 9 52 17 104 19 115 13 87 36 233 40
245 2 8 6 38 10 65 3 28 15 109 26 180 24 153 44 296 65 455 8 63 17 126 19
140 2 14 7 50 10 80 3 30 8 66 10 80 2 14 6 50 10 80 3 30 8 78 12 105 3 28 7
61 8 75 3 35 15 148 20 190 3 19 7 69 10 110 4 41 8 91 10 110 2 19 6 80 10
135 4 55 9 118 11 140 23 277 22 772 -2 980 -30 256 -96 437 -182 499 -42 30
-48 31 -140 31 -347 -2 -926 -335 -1662 -955 -113 -94 -160 -135 -194 -165 -6
-5 -52 -46 -101 -90 -50 -43 -97 -86 -106 -95 -9 -8 -61 -55 -115 -105 -321
-294 -1036 -1009 -1395 -1395 -18 -19 -62 -67 -98 -105 -68 -73 -249 -269
-292 -316 -13 -15 -60 -66 -104 -114 -100 -110 -86 -94 -180 -199 -44 -50 -87
-97 -95 -106 -8 -9 -42 -47 -75 -84 -33 -38 -65 -74 -70 -80 -16 -17 -231
-262 -300 -341 -33 -38 -92 -105 -130 -149 -226 -259 -660 -771 -943 -1114
-101 -122 -187 -224 -192 -227 -5 -3 -65 14 -132 39 -298 107 -679 209 -1016
271 -15 3 -38 7 -52 10 -14 3 -45 7 -70 11 -25 3 -70 9 -100 14 -30 5 -84 12
-120 16 -36 3 -72 7 -80 9 -8 1 -60 6 -115 10 -55 4 -120 9 -145 11 -59 4
-530 4 -600 0 -85 -6 -211 -16 -250 -21 -19 -2 -60 -7 -90 -10 -489 -52 -1180
-234 -1669 -439 -33 -15 -62 -26 -65 -26 -2 0 -39 44 -82 98 -43 53 -88 108
-100 122 -12 14 -115 138 -230 275 -114 138 -244 293 -288 345 -138 163 -437
513 -470 550 -17 19 -49 55 -70 80 -62 71 -147 170 -196 225 -25 28 -70 80
-100 115 -30 35 -60 68 -65 74 -6 6 -67 74 -135 151 -69 77 -140 158 -160 179
-19 21 -39 44 -45 50 -25 28 -201 222 -205 226 -3 3 -30 32 -60 65 -76 84
-291 314 -376 405 -220 233 -292 307 -519 539 -298 302 -239 244 -432 431
-189 185 -312 302 -453 430 -57 52 -111 102 -120 110 -19 18 -151 135 -199
176 -19 16 -39 34 -45 39 -19 18 -200 171 -221 188 -11 8 -47 37 -80 64 -644
522 -1164 804 -1495 811 -36 1 -78 -4 -95 -12z"/>
</g>
</svg>
